:SAMPLES-PER-SECOND 30
:FULLY-SPECIFIED
:DEGREES
339
root  -7.662999912 40.67288797 11.70188874 13.98400879 -71.92199707 -5.198974609
lowerback  13.89710045 7.166079998 -0.154993996
upperback  6.300580025 9.092949867 -1.84928
thorax  -0.7788029909 4.449359894 -3.109280109
lowerneck  2.596369982 4.467840195 -5.792630196
upperneck  15.55860043 4.424640179 11.33310032
head  3.748739958 2.265450001 4.544559956
lclavicle  0 -9.442270133e-015 7.951389973e-016
lhumerus  -12.81210041 -28.46920013 93.4367981
lradius  1.582746153e-031 -3.156542199e-031 116.6299973
lwrist  -7.062250077e-031 3.531125038e-031 55.49160004
lhand  -1.496451383e-031 -27.76390076 20.11240005
lfingers  90 7.125020027 -90
lthumb  89.89689403 5.08795885 91.16245106
rclavicle  0 -9.442270133e-015 7.951389973e-016
rhumerus  6.546929836 20.18569946 -87.27749634
rradius  8.631578257e-032 3.424003885e-031 75.85109711
rwrist  7.062250077e-031 7.062250077e-031 -66.70890045
rhand  -7.920061211e-032 -33.2840004 9.303460121
rfingers  -90 -7.125020027 -90
rthumb  -92.93752616 -24.25625642 -97.11982154
rfemur  -14.20899963 6.30535984 11.10990047
rtibia  -0 0 45.25939941
rfoot  -0 -16.36429977 -25.25189972
rtoes  5.373923086 19.29304026 -105.8922705
lfemur  -42.44760132 -5.657330036 -1.165689945
ltibia  -0 0 39.58229828
lfoot  -0 9.409150124 -9.437459946
ltoes  -4.250644065 -19.5611806 -102.515957
340
root  -7.532466678 40.6068877 11.73568861 13.23297119 -72.44300079 -4.677978516
lowerback  13.99250031 7.130400181 -0.3253139853
upperback  6.355619907 9.022689819 -1.699409962
thorax  -0.8265299797 4.406030178 -2.864249945
lowerneck  1.754570007 4.391640186 -6.221749783
upperneck  14.64519978 4.528110027 10.86279964
head  3.612070084 2.301690102 4.466849804
lclavicle  0 -9.442270133e-015 7.951389973e-016
lhumerus  -13.36460018 -27.80150032 93.4312973
lradius  1.644525076e-031 -3.124801003e-031 117.7570038
lwrist  0 3.531125038e-031 54.72230148
lhand  -1.496451383e-031 -27.76390076 20.11240005
lfingers  90 7.125020027 -90
lthumb  89.89689403 5.08795885 91.16245106
rclavicle  0 -9.442270133e-015 7.951389973e-016
rhumerus  4.439070225 20.27729988 -87.37560272
rradius  8.545794705e-032 3.426154983e-031 75.99459839
rwrist  1.059337512e-030 1.059337512e-030 -66.08480072
rhand  -7.920061211e-032 -33.2840004 9.303460121
rfingers  -90 -7.125020027 -90
rthumb  -92.93752616 -24.25625642 -97.11982154
rfemur  -14.47859955 6.670470238 10.58440018
rtibia  -0 0 46.0345993
rfoot  -0 -16.58749962 -23.57460022
rtoes  5.373923086 19.29304026 -105.8922705
lfemur  -41.86050034 -5.309689999 -1.272699952
ltibia  -0 0 41.14490128
lfoot  -0 10.1310997 -11.48289967
ltoes  -4.250644065 -19.5611806 -102.515957
341
root  -7.394844716 40.50599947 11.75737756 11.91601562 -72.84899902 -3.474975586
lowerback  14.16250038 7.014450073 -0.5292829871
upperback  6.287230015 8.836819649 -1.777799964
thorax  -1.014889956 4.30768013 -2.838069916
lowerneck  0.9923120141 4.342010021 -6.20333004
upperneck  13.73289967 4.654049873 10.30090046
head  3.476660013 2.365200043 4.28621006
lclavicle  0 -9.442270133e-015 7.951389973e-016
lhumerus  -14.0571003 -27.09539986 93.18769836
lradius  1.713701736e-031 -3.087405124e-031 119.0329971
lwrist  -7.062250077e-031 5.296687558e-031 54.29759979
lhand  -1.496451383e-031 -27.76390076 20.11240005
lfingers  90 7.125020027 -90
lthumb  89.89689403 5.08795885 91.16245106
rclavicle  0 -9.442270133e-015 7.951389973e-016
rhumerus  2.271620035 20.22960091 -87.7947998
rradius  8.407710027e-032 3.429569675e-031 76.22540283
rwrist  3.531125038e-031 3.531125038e-031 -65.64589691
rhand  -7.920061211e-032 -33.2840004 9.303460121
rfingers  -90 -7.125020027 -90
rthumb  -92.93752616 -24.25625642 -97.11982154
rfemur  -14.96450043 6.954160213 9.906299591
rtibia  -0 0 47.32160187
rfoot  -0 -16.92009926 -22.14699936
rtoes  5.373923086 19.29304026 -105.8922705
lfemur  -41.43809891 -5.080780029 -1.534559965
ltibia  -0 0 42.75719833
lfoot  -0 10.47169971 -13.00319958
ltoes  -4.250644065 -19.5611806 -102.515957
342
root  -7.26711093 40.3742212 11.77457749 9.994018555 -73.20500183 -1.741027832
lowerback  14.39999962 6.856080055 -0.8022930026
upperback  6.191030025 8.578900337 -1.966860056
thorax  -1.262689948 4.173220158 -2.887419939
lowerneck  0.4962120056 4.365340233 -5.998819828
upperneck  12.65550041 4.852900028 9.794980049
head  3.245369911 2.467129946 4.084219933
lclavicle  0 -9.442270133e-015 7.951389973e-016
lhumerus  -14.77600002 -26.33950043 92.84169769
lradius  1.780432542e-031 -3.049410435e-031 120.2789993
lwrist  -7.062250077e-031 5.296687558e-031 53.80580139
lhand  -1.496451383e-031 -27.76390076 20.11240005
lfingers  90 7.125020027 -90
lthumb  89.89689403 5.08795885 91.16245106
rclavicle  0 -9.442270133e-015 7.951389973e-016
rhumerus  0.04720890149 20.27879906 -88.33660126
rradius  8.18624562e-032 3.434923269e-031 76.5951004
rwrist  7.062250077e-031 1.059337512e-030 -65.06890106
rhand  -7.920061211e-032 -33.2840004 9.303460121
rfingers  -90 -7.125020027 -90
rthumb  -92.93752616 -24.25625642 -97.11982154
rfemur  -15.4296999 7.142570019 9.105150223
rtibia  -0 0 49.07479858
rfoot  -0 -17.1977005 -20.88220024
rtoes  5.373923086 19.29304026 -105.8922705
lfemur  -40.89009857 -4.850379944 -1.96863997
ltibia  -0 0 44.35160065
lfoot  -0 10.17199993 -13.88319969
ltoes  -4.250644065 -19.5611806 -102.515957
343
root  -7.142444671 40.20777725 11.78726662 8.510009766 -73.48200226 -0.507019043
lowerback  14.55070019 6.693309784 -1.046429992
upperback  6.121560097 8.328300476 -1.956419945
thorax  -1.46254003 4.041820049 -2.733069897
lowerneck  -0.1917539984 4.341509819 -5.885179996
upperneck  11.8781004 4.985129833 9.138400078
head  3.144160032 2.531990051 3.865200043
lclavicle  0 -9.442270133e-015 7.951389973e-016
lhumerus  -15.43169975 -25.47660065 92.59660339
lradius  1.843641275e-031 -3.011615992e-031 121.473999
lwrist  0 5.296687558e-031 53.1495018
lhand  -1.496451383e-031 -27.76390076 20.11240005
lfingers  90 7.125020027 -90
lthumb  89.89689403 5.08795885 91.16245106
rclavicle  0 -9.442270133e-015 7.951389973e-016
rhumerus  -2.049949884 20.40060043 -88.61070251
rradius  7.964980923e-032 3.440121339e-031 76.96389771
rwrist  7.062250077e-031 3.531125038e-031 -64.44480133
rhand  -7.920061211e-032 -33.2840004 9.303460121
rfingers  -90 -7.125020027 -90
rthumb  -92.93752616 -24.25625642 -97.11982154
rfemur  -15.90929985 7.255320072 8.509129524
rtibia  -0 0 51.20600128
rfoot  -0 -17.54039955 -19.87989998
rtoes  5.373923086 19.29304026 -105.8922705
lfemur  -40.29000092 -4.485869884 -2.266429901
ltibia  -0 0 45.85469818
lfoot  -0 9.135169983 -14.10690022
ltoes  -4.250644065 -19.5611806 -102.515957
344
root  -7.018644228 40.02599941 11.80193368 6.791015625 -73.68299866 0.9470214844
lowerback  14.64439964 6.490479946 -1.22458005
upperback  6.106599808 8.032959938 -1.990700006
thorax  -1.558179975 3.890969992 -2.640269995
lowerneck  -0.8627259731 4.272349834 -5.982120037
upperneck  10.91110039 5.048940182 8.690739632
head  2.975990057 2.562680006 3.740400076
lclavicle  0 -9.442270133e-015 7.951389973e-016
lhumerus  -15.95349979 -24.55800056 92.18710327
lradius  1.908278321e-031 -2.971080256e-031 122.711998
lwrist  -7.062250077e-031 5.296687558e-031 52.58330154
lhand  -1.496451383e-031 -27.76390076 20.11240005
lfingers  90 7.125020027 -90
lthumb  89.89689403 5.08795885 91.16245106
rclavicle  0 -9.442270133e-015 7.951389973e-016
rhumerus  -3.920929909 20.28890038 -88.89949799
rradius  7.810170661e-032 3.443669029e-031 77.22160339
rwrist  3.531125038e-031 7.062250077e-031 -63.50180054
rhand  -7.920061211e-032 -33.2840004 9.303460121
rfingers  -90 -7.125020027 -90
rthumb  -92.93752616 -24.25625642 -97.11982154
rfemur  -16.37249947 7.240290165 7.886199951
rtibia  -0 0 53.63339996
rfoot  -0 -17.87630081 -19.07990074
rtoes  5.373923086 19.29304026 -105.8922705
lfemur  -39.6853981 -4.149209976 -2.667589903
ltibia  -0 0 47.13190079
lfoot  -0 7.217440128 -13.19779968
ltoes  -4.250644065 -19.5611806 -102.515957
